<svg width="607.749" height="595.915" viewBox="0 0 160.8 157.669" xml:space="preserve" xmlns="http://www.w3.org/2000/svg"><g transform="translate(-26.308 -48.127)"><path style="display:inline;fill:#1a5486;fill-opacity:1;stroke:#1a5486;stroke-width:.300979;stroke-opacity:1" d="M102.698 57.158c-3.751.247-7.488.714-11.165 1.507-3.916.838-7.763 2-11.49 3.469-3.763 1.483-7.389 3.302-10.856 5.385a73.746 73.746 0 0 0-9.64 7.01 71.803 71.803 0 0 0-8.122 8.287 70.047 70.047 0 0 0-6.716 9.623 69.143 69.143 0 0 0-8.187 22.19 70.028 70.028 0 0 0-1.121 11.81 69.93 69.93 0 0 0 .892 11.537 70.468 70.468 0 0 0 2.959 11.66 71.82 71.82 0 0 0 4.819 10.747 71.561 71.561 0 0 0 6.469 9.649 70.594 70.594 0 0 0 8.016 8.488 71.645 71.645 0 0 0 9.625 7.266 73.251 73.251 0 0 0 10.703 5.544 74.565 74.565 0 0 0 11.483 3.683 75.401 75.401 0 0 0 11.927 1.728c3.971.224 7.958.145 11.916-.256a75.434 75.434 0 0 0 11.873-2.24 75.167 75.167 0 0 0 11.138-4.097 74.868 74.868 0 0 0 10.458-5.963 73.86 73.86 0 0 0 9.06-7.41 71.279 71.279 0 0 0 7.69-8.77 69.353 69.353 0 0 0 6.106-9.89 68.476 68.476 0 0 0 4.475-11.09c1.196-3.89 2.013-7.89 2.525-11.928.544-4.877.66-9.824.175-14.685-1.44-15.281-8.13-29.819-18.678-40.957a71.339 71.339 0 0 0-23.888-16.605c-9.895-4.217-20.682-6.206-31.443-5.72-.334.01-.668.02-1.003.028zm84.26 69.803a80.25 78.684 0 0 1-80.25 78.684 80.25 78.684 0 0 1-80.25-78.684 80.25 78.684 0 0 1 80.25-78.684 80.25 78.684 0 0 1 80.25 78.684z"/><ellipse style="display:inline;fill:#a1d7b8;fill-opacity:1;stroke:#a1d7b8;stroke-width:.252541;stroke-opacity:1" cx="106.708" cy="126.961" rx="60.286" ry="59.11"/><path style="font-size:7.58816px;fill:#fff;fill-opacity:1;stroke:none;stroke-width:.252541;stroke-opacity:1" d="M166.994 126.961a60.286 59.11 0 0 1-60.286 59.11 60.286 59.11 0 0 1-60.286-59.11 60.286 59.11 0 0 1 60.286-59.11 60.286 59.11 0 0 1 60.286 59.11Zm-64.296-69.803c-3.751.247-7.488.714-11.165 1.507-3.916.838-7.763 2-11.49 3.469-3.763 1.483-7.389 3.302-10.856 5.385a73.746 73.746 0 0 0-9.64 7.01 71.803 71.803 0 0 0-8.122 8.287 70.047 70.047 0 0 0-6.716 9.623 69.143 69.143 0 0 0-8.187 22.19 70.028 70.028 0 0 0-1.121 11.81 69.93 69.93 0 0 0 .892 11.537 70.468 70.468 0 0 0 2.959 11.66 71.82 71.82 0 0 0 4.819 10.747 71.561 71.561 0 0 0 6.469 9.649 70.594 70.594 0 0 0 8.016 8.488 71.645 71.645 0 0 0 9.625 7.266 73.251 73.251 0 0 0 10.703 5.544 74.565 74.565 0 0 0 11.483 3.683 75.401 75.401 0 0 0 11.927 1.728c3.971.224 7.958.145 11.916-.256a75.434 75.434 0 0 0 11.873-2.24 75.167 75.167 0 0 0 11.138-4.097 74.868 74.868 0 0 0 10.458-5.963 73.86 73.86 0 0 0 9.06-7.41 71.279 71.279 0 0 0 7.69-8.77 69.353 69.353 0 0 0 6.106-9.89 68.476 68.476 0 0 0 4.475-11.09c1.196-3.89 2.013-7.89 2.525-11.928.544-4.877.66-9.824.175-14.685-1.44-15.281-8.13-29.819-18.678-40.957a71.339 71.339 0 0 0-23.888-16.605c-9.895-4.217-20.682-6.206-31.443-5.72-.334.01-.668.02-1.003.028z"/><path style="font-weight:600;font-size:7.58816px;font-family:'Open Sans';-inkscape-font-specification:'Open Sans Semi-Bold';stroke-width:.264583" d="M169.572 132.21q-1.34-.064-2.014-.842-.671-.777-.604-2.176l.073-1.514 5.41.26-.08 1.673q-.062 1.292-.792 1.976-.73.685-1.993.624zm.016-.933q1.942.093 2.03-1.724l.037-.766-3.927-.189-.03.63q-.094 1.953 1.89 2.049zm-3.322 4.996.405-3.037 5.37.716-.406 3.037-.742-.099.288-2.16-1.462-.194-.27 2.023-.734-.098.27-2.023-1.686-.225-.288 2.16zm2.755 5.443q-.83-.175-1.158-.812-.328-.637-.116-1.641l.116-.551-1.984-.418.183-.867 5.3 1.117-.321 1.526q-.21.994-.72 1.401-.51.411-1.3.245zm-.43-2.85-.097.46q-.14.667.026 1.027.167.361.66.465.456.096.74-.136.284-.231.408-.822l.127-.602zm-4.402 5.976 1.596-.092.588-1.986-1.292-.935.265-.895 4.64 3.487-.273.923-5.79.4zm2.394-.1 1.558-.067q.158-.012.492-.017.333-.002.486.005-.409-.225-.873-.564l-1.215-.87zm-.54 3.547-.223.573q-.224.577-.11.92.113.341.534.505.428.167.723-.04.296-.208.514-.77l.212-.547zm-.684-.266-2.017-.783.32-.826 5.05 1.962-.554 1.426q-.38.978-.929 1.305-.548.328-1.288.04-.942-.366-.962-1.502l-2.789.558.365-.94 2.487-.425zm-4.327 4.573.384-.798 4.196 2.021.691-1.435.685.33-1.767 3.668-.684-.33.69-1.435zm-2.271 4.188 4.683 1.002.015-.025q-.894-.469-1.648-.926l-2.253-1.366.417-.687 4.632 2.808-.647 1.068-4.465-.948-.012.02 2.882 3.557-.649 1.071-4.632-2.808.442-.728 2.29 1.388q.346.21.89.562.544.355.653.438l.016-.025-3.02-3.732zm-4.36 6.372 1.83-2.457 4.344 3.236-1.83 2.457-.6-.447 1.3-1.747-1.182-.881-1.22 1.637-.594-.443 1.22-1.637-1.364-1.016-1.302 1.748zm-3.718 4.301.721-.812 4.997.874.02-.023-.193-.146q-.55-.418-.977-.797l-2.106-1.87.534-.6 4.051 3.595-.713.804-4.975-.864-.015.016q.069.051.483.389.416.34.64.54l2.123 1.883-.539.607zm-2.379 2.292.643-.61 3.205 3.38 1.156-1.096.522.55-2.954 2.803-.523-.551 1.156-1.097zm-5.526 7.965q-.79-1.06-.697-2.045.09-.982 1.062-1.707.983-.732 1.946-.544.962.193 1.763 1.268.802 1.076.703 2.046-.102.973-1.086 1.706-.968.722-1.933.53-.965-.19-1.758-1.254zm3.315-2.471q-.597-.802-1.231-.977-.632-.171-1.267.303-.633.471-.649 1.12-.018.652.587 1.463.595.799 1.224.973.626.176 1.258-.296.64-.476.658-1.133.016-.654-.58-1.453zm-6.675 1.373.745-.465 2.866 4.597-2.593 1.617-.396-.635 1.848-1.153-.896-1.437-1.732 1.08-.398-.638 1.732-1.08zm-4.439 7.844q.687-.334.843-1.012.157-.678-.26-1.534-.436-.896-1.036-1.173-.603-.275-1.32.073-.31.151-.57.352-.26.204-.526.453l-.332-.683q.468-.495 1.194-.848 1.07-.52 1.957-.153.89.371 1.476 1.577.37.76.37 1.464-.003.706-.382 1.266-.379.559-1.088.904-.747.363-1.532.358l-.036-.803q.303-.003.622-.051.317-.043.62-.19zm-7.724.999q-.472-1.236-.115-2.158.354-.92 1.486-1.354 1.145-.438 2.02.004.874.448 1.353 1.7.48 1.253.12 2.16-.362.908-1.508 1.347-1.128.431-2.005-.015t-1.35-1.685zm3.862-1.478q-.357-.934-.92-1.274-.56-.337-1.301-.054-.737.282-.928.903-.195.622.166 1.566.357.931.914 1.27.555.339 1.292.057.744-.285.94-.912.194-.625-.163-1.556zm-8.202-.084 2.68 3.969.03-.008q-.32-.958-.547-1.81l-.677-2.546.777-.207 1.392 5.235-1.207.32-2.56-3.777-.022.006-.39 4.562-1.21.322-1.392-5.235.824-.219.688 2.59q.104.39.252 1.02.146.633.166.77l.03-.009.41-4.782zm-7.454 5.394q-.139-.837.335-1.374.475-.537 1.487-.705l.556-.093-.333-1.999.874-.145.888 5.344-1.539.255q-1.001.167-1.566-.16-.57-.326-.702-1.123zm2.5-1.437-.465.077q-.672.112-.948.398-.275.286-.192.783.076.46.395.64.32.18.915.081l.607-.1zm-7.99 3.59-.283-3.494q-.048-.599.174-1.07.219-.468.686-.75.465-.28 1.14-.335 1.005-.081 1.606.405.6.487.676 1.418l.282 3.478-.887.072-.276-3.416q-.055-.668-.39-.96-.336-.293-.979-.241-1.248.101-1.142 1.412l.276 3.409zm-3.696-5.372h.886v4.657h1.594v.76h-4.072v-.76h1.593zm-5.48-.263 3.057.212-.375 5.404-3.057-.212.052-.747 2.174.151.102-1.47-2.037-.142.051-.74 2.037.142.118-1.697-2.174-.15zm-2.456 2.619-.608-.088q-.613-.088-.92.1-.309.187-.373.635-.066.454.203.695.268.241.866.327l.58.084zm.105-.726.309-2.142.876.127-.773 5.361-1.514-.218q-1.038-.15-1.48-.61-.444-.461-.33-1.246.144-1.001 1.247-1.276l-1.173-2.591.998.143.975 2.327zm-8.923-2.527q.178-.7.785-.97.608-.27 1.498-.044.89.226 1.388.647l-.206.811q-.316-.26-.694-.459-.381-.2-.73-.288-.51-.13-.8.003-.293.131-.376.458-.075.295.096.556.17.261.796.718.644.474.844.922.2.448.066.973-.167.657-.73.915-.562.259-1.349.059-.754-.192-1.417-.712l.451-.631q.626.472 1.175.612.417.106.679-.022.26-.125.336-.423.053-.205.004-.374-.05-.166-.215-.345-.164-.18-.624-.522-.517-.388-.733-.664-.217-.277-.276-.571-.059-.294.032-.65zm-4.33 2.037q.723.242 1.31-.132.585-.375.887-1.278.315-.946.08-1.563-.238-.619-.994-.871-.327-.11-.654-.148-.328-.036-.692-.044l.24-.72q.681-.027 1.447.229 1.128.377 1.505 1.26.376.887-.049 2.16-.267.8-.76 1.304-.496.503-1.158.637-.662.135-1.41-.115-.788-.263-1.345-.817l.536-.598q.219.21.48.399.256.19.576.297zm-.851-5.358-2.012 5.03-.823-.33 2.013-5.029zm-4.926-2.162 2.78 1.29-2.28 4.914-2.78-1.29.316-.679 1.976.917.62-1.338-1.851-.859.311-.672 1.852.86.716-1.544-1.976-.917zm-4.974-2.75.943.537.176 5.07.026.014.103-.218q.296-.625.58-1.12l1.394-2.447.698.399-2.683 4.705-.933-.532-.18-5.046-.02-.011q-.036.077-.28.552-.248.478-.396.738l-1.406 2.466-.705-.402zm-5.793 1.788q.627.435 1.295.24.668-.194 1.21-.976.57-.819.517-1.478-.055-.66-.709-1.115-.283-.197-.586-.326-.305-.126-.652-.237l.433-.623q.661.165 1.325.626.976.679 1.09 1.633.11.957-.655 2.058-.482.694-1.096 1.039-.617.343-1.29.286-.673-.057-1.321-.508-.682-.473-1.061-1.161l.682-.424q.151.263.349.518.192.255.47.448zm-1.696-7.303 2.378 1.932-3.416 4.204-2.378-1.932.472-.581 1.69 1.374.93-1.145-1.584-1.287.467-.575 1.585 1.287 1.072-1.32-1.69-1.374zm-4.692-4.502-.691 1.441 1.454 1.475 1.443-.679.655.665-5.296 2.375-.676-.686 2.45-5.261zm-1.071 2.143-.694 1.397q-.066.143-.223.438-.16.293-.239.423.395-.249.915-.491l1.349-.643zm-2.92-6.847.688.84-1.653 4.796.02.023.174-.167q.5-.477.942-.839l2.178-1.783.51.622-4.192 3.431-.68-.831 1.64-4.776-.015-.017q-.06.06-.46.415-.401.357-.633.547l-2.196 1.798-.515-.627zm-5.588-3.288q1.115-.745 2.12-.52 1.002.226 1.78 1.39l.842 1.26-4.505 3.01-.93-1.394q-.718-1.075-.538-2.06.18-.984 1.23-1.686zm.543.76q-1.618 1.08-.608 2.593l.426.638 3.27-2.183-.35-.524q-1.087-1.627-2.738-.524zm-1.181-7.756 1.393 2.73-4.825 2.462-1.393-2.729.666-.34.99 1.94 1.314-.67-.928-1.818.66-.337.928 1.818 1.515-.773-.99-1.94zm-2.207-5.238.408 1.006-3 4.09.011.027.216-.107q.62-.307 1.149-.521l2.61-1.058.301.745-5.02 2.035-.404-.996 2.982-4.075-.008-.02q-.076.038-.562.26-.49.221-.768.334l-2.63 1.066-.305-.752zm-3.907-2.65-.564-1.913 2.608-.77q.291.425.483.84.19.41.339.912.348 1.18-.16 2.025-.511.846-1.784 1.221-1.254.37-2.174-.143-.924-.511-1.297-1.776-.24-.814-.142-1.635l.795.09q-.105.718.082 1.351.245.832.91 1.16.665.33 1.571.063.953-.281 1.322-.862.365-.582.124-1.4-.121-.412-.363-.85l-1.34.394.318 1.077zm1.984-4.019-5.287 1.18-.193-.864 5.287-1.18zm-1.186-6.722.16 1.073-3.874 3.274.004.029.235-.054q.674-.153 1.239-.238l2.785-.416.119.795-5.358.801-.159-1.062 3.854-3.263-.003-.022q-.083.02-.608.12-.528.102-.824.147l-2.807.42-.12-.803zm-.298-4.487.186 3.058-5.407.329-.186-3.058.747-.046.132 2.175 1.472-.09-.124-2.038.74-.045.123 2.038 1.698-.103-.132-2.175zm.018-4.236-.037 3.064-5.417-.067.038-3.064.748.009-.027 2.178 1.475.019.025-2.042.741.01-.025 2.04 1.7.022.027-2.179zm-2.746-2.316.055-.612q.056-.616-.147-.914-.204-.297-.654-.338-.458-.042-.684.239-.226.28-.281.882l-.053.583zm.73.067 2.155.196-.08.882-5.395-.49.139-1.525q.095-1.044.532-1.51.436-.467 1.226-.395 1.007.092 1.34 1.179l2.526-1.307-.091 1.004-2.273 1.095zm2.597-3.744-5.354-.822.135-.876 5.354.823zm1.34-6.694-.241 1.06-4.8 1.64-.007.029.24.035q.683.102 1.24.229l2.745.624-.178.784-5.282-1.201.238-1.048 4.776-1.638.005-.022q-.084-.012-.61-.108-.528-.098-.821-.164l-2.768-.63.18-.79zm-1.69-4.409.63-1.89 2.58.86q-.003.514-.083.964-.078.447-.244.942-.389 1.167-1.289 1.57-.903.402-2.162-.018-1.24-.414-1.702-1.36-.465-.949-.047-2.2.268-.805.818-1.422l.6.529q-.496.529-.705 1.155-.274.822.083 1.472.357.65 1.253.95.942.314 1.578.05.632-.27.902-1.078.136-.408.189-.906l-1.325-.442-.356 1.065zm3.494-3.212q.571.424 1.398 1.273l-.242.594q-.83-.614-1.578-1.055l.322-.793zm-.796-8.906 3.1 1.636q.53.28.81.72.277.436.265.983-.014.541-.33 1.141-.47.891-1.204 1.137-.732.246-1.558-.19L47.37 99.17l.415-.786 3.031 1.6q.593.312 1.02.186.427-.127.728-.697.585-1.107-.579-1.721l-3.024-1.596zm7.982-2.434-.598.905-5.07-.157-.016.025.21.117q.604.337 1.08.652l2.35 1.552-.444.67-4.519-2.986.592-.896 5.048.15.012-.018q-.075-.04-.533-.316-.46-.278-.71-.443l-2.368-1.565.447-.677zm.882-1.13-4.3-3.294.54-.703 4.299 3.295zm-.663-7.712.601-.695 2.856 4.978-.61.707-5.334-2.115.596-.69 3.287 1.35q.24.09.594.264.352.171.511.27-.181-.22-.396-.539-.215-.318-.308-.482zm7.387.189-2.173 2.16-3.82-3.841 2.173-2.16.528.53-1.545 1.536 1.04 1.046 1.447-1.44.523.526-1.448 1.44 1.2 1.205 1.544-1.536zm-.347-3.575.468-.4q.47-.4.533-.756.062-.355-.231-.699-.299-.35-.657-.307-.358.043-.817.435l-.446.38zm.476.558 1.405 1.646-.673.575-3.517-4.12 1.164-.994q.797-.68 1.436-.709.638-.028 1.153.575.656.77.135 1.78l2.72.83-.766.653-2.392-.803zm6.116-3.908q.427.583.248 1.223-.179.64-.92 1.183-.742.543-1.383.658l-.494-.676q.401-.078.795-.242.397-.167.688-.379.424-.31.507-.619.085-.31-.114-.582-.18-.245-.49-.28-.31-.035-1.06.156-.776.195-1.249.064-.472-.132-.792-.569-.4-.547-.24-1.145.158-.599.813-1.078.628-.459 1.452-.639l.199.75q-.763.18-1.22.516-.347.253-.415.537-.07.28.111.529.125.17.286.24.16.068.403.055.243-.013.8-.149.628-.152.98-.142.35.01.615.15.264.143.48.439zm1.752.62-2.958-4.538.742-.484 2.958 4.538zm3.568-2.19-.767.443-2.326-4.035-1.38.796-.38-.658 3.527-2.034.38.658-1.38.796zm2.218-4.486.078-2.783.867-.42-.18 3.77.915 1.892-.8.387-.902-1.864-3.075-2.23.867-.419zm9.45-3.491q.432 1.25.044 2.16-.384.908-1.529 1.304-1.159.4-2.02-.071-.858-.476-1.295-1.744-.438-1.268-.05-2.162.393-.896 1.552-1.296 1.142-.395 2.004.08.861.475 1.294 1.729zm-3.908 1.35q.326.945.877 1.303.55.355 1.3.096.746-.257.957-.871.215-.615-.115-1.571-.326-.942-.872-1.299-.543-.357-1.289-.1-.753.26-.97.88-.214.619.112 1.561zm6.776.712-.85.218-1.344-5.248 2.961-.758.186.725-2.11.54.42 1.641 1.977-.506.187.728-1.978.507zm8.983-4.48q.188 1.328-.45 2.137-.639.805-2.026 1l-1.5.212-.757-5.364 1.658-.234q1.28-.18 2.09.409.809.59.985 1.84zm-.92.16q-.272-1.926-2.073-1.672l-.76.107.55 3.893.623-.088q1.938-.273 1.66-2.24zm6.735 2.266-.888.043-.118-2.439-2.495.121.119 2.439-.885.043-.262-5.41.884-.044.108 2.213 2.494-.12-.108-2.214.889-.043zm4.787.138-.482-1.525-2.07-.08-.588 1.483-.933-.036 2.236-5.357.962.038 1.815 5.513zm-.686-2.296-.45-1.493q-.05-.15-.138-.473-.084-.322-.115-.472-.118.452-.331.985l-.543 1.392zm6.445 2.91-1.02-.121-1.397-2.637-.57.36-.24 2.013-.88-.105.644-5.378.879.105-.307 2.568q.413-.399.819-.765l1.658-1.544 1.001.12q-1.607 1.487-2.301 2.116zm3.998.805-.233-1.582-2.03-.41-.817 1.37-.915-.185 3.063-4.93.945.19.91 5.733zm-.31-2.376-.206-1.546q-.025-.157-.06-.489-.031-.331-.038-.484-.189.427-.485.92l-.758 1.286z" transform="matrix(-.64098 .82664 -.82664 -.64098 280.074 120.89)" aria-label="DEPARTMENT OF COMPUTER SCIENCE AND ENGINEERING, UNIVERSITY OF DHAKA"/><path d="m98.545 57.513.696 1.48 2.109-.2.394-1.583.951-.09-1.54 5.734-.98.093-2.588-5.343zm1.007 2.235.66 1.452q.07.146.203.46.128.316.18.463.058-.474.202-1.043l.362-1.485zm-2.688-2.024.845 5.476-.895.138-.727-4.708-2.318.358-.119-.768zm-7.091 7.016-.793-3.497q-.135-.598.021-1.108.154-.505.586-.86.43-.35 1.106-.503 1.006-.228 1.684.178.679.406.89 1.337l.79 3.482-.888.2-.775-3.418q-.151-.669-.534-.916-.382-.248-1.025-.102-1.25.283-.952 1.595l.773 3.411zm-4.882-4.324 2.946 3.913.03-.01q-.378-.96-.654-1.82l-.825-2.564.782-.252 1.698 5.274-1.216.391-2.815-3.724-.021.007-.158 4.68-1.22.393-1.697-5.274.83-.267.84 2.608q.126.393.31 1.03.182.639.21.777l.03-.01.168-4.907zm-8.757 3.358 1.021-.436 4.24 2.99.027-.011-.114-.22q-.325-.627-.555-1.164l-1.13-2.649.756-.322 2.175 5.095-1.01.432-4.224-2.973-.02.009q.04.077.276.57.236.496.357.779l1.14 2.67-.764.325zm-1.305.665 2.474 4.958-.81.404-2.474-4.957zm-6.834 3.799 1.268 1.032 1.815-1.093-.33-1.597.818-.493 1.094 5.835-.844.509-4.645-3.697zm1.875 1.578 1.223 1.024q.127.1.383.327.252.228.363.339-.153-.452-.27-1.028l-.316-1.495Zm-5.051 2.415q-.422-.606-.224-1.257.197-.65.969-1.188.77-.537 1.429-.64l.49.703q-.413.07-.82.23-.41.16-.712.37-.441.308-.532.62-.095.316.102.599.178.255.494.298.316.043 1.089-.135.797-.181 1.277-.036.48.146.797.6.396.57.22 1.177-.177.608-.858 1.083-.653.455-1.5.62l-.185-.772q.784-.167 1.26-.499.36-.251.436-.54.078-.285-.101-.543-.124-.177-.287-.253-.162-.072-.41-.065-.25.007-.822.134-.646.14-1.005.122-.359-.018-.626-.169-.266-.151-.481-.459zm-3.297 2.57q-.457-.58-.297-1.24.16-.662.899-1.243.739-.581 1.39-.722l.53.673q-.409.095-.806.277-.4.184-.688.411-.423.333-.496.65-.077.32.137.592.192.244.51.269.318.024 1.079-.198.785-.227 1.273-.11.488.118.83.553.429.545.288 1.162-.141.618-.794 1.13-.625.493-1.46.706l-.23-.759q.772-.212 1.228-.57.345-.273.405-.565.061-.29-.133-.537-.134-.17-.301-.236-.166-.062-.414-.04-.248.02-.812.18-.637.178-.996.18-.36.004-.635-.132-.275-.135-.507-.43zm-3.51 4.87q-.914-.997-.921-2.008-.01-1.01.903-1.847.925-.847 1.924-.756 1 .098 1.926 1.109.927 1.011.927 2.009-.004 1-.928 1.848-.911.834-1.913.74-1.001-.095-1.918-1.095zm3.117-2.857q-.69-.755-1.354-.867-.66-.109-1.258.44-.595.545-.543 1.207.048.664.747 1.427.69.751 1.347.863.655.114 1.25-.431.6-.55.552-1.22-.052-.668-.74-1.42zm-3.891 6.701q.533-.57.434-1.274-.098-.705-.81-1.37-.744-.697-1.418-.741-.677-.042-1.234.553-.24.258-.416.545-.173.29-.336.625l-.567-.53q.265-.645.83-1.248.83-.889 1.813-.862.985.028 1.986.966.631.59.89 1.262.256.675.098 1.348-.157.673-.708 1.263-.58.62-1.332.902l-.328-.753q.288-.114.575-.277.287-.157.523-.409zm-5.234-1.39 4.239 3.568-.583.693-4.24-3.567zm-3.596 4.557 1.56.488 1.279-1.69-.9-1.36.577-.761 3.184 5.01-.594.786-5.687-1.705zm2.327.769 1.516.496q.155.046.477.161.319.118.463.18-.31-.363-.632-.854l-.85-1.27zm-4.044 1.772.5-.755 3.974 2.625.898-1.36.648.428-2.295 3.476-.648-.429.898-1.36zm-1.32 2.097 4.757 2.839-.464.778-4.758-2.839zm-1.013 7.674q-1.202-.62-1.558-1.567-.358-.943.21-2.045.576-1.114 1.545-1.373.971-.254 2.19.375 1.22.629 1.563 1.566.343.94-.233 2.054-.566 1.098-1.539 1.355-.973.257-2.178-.365zm1.939-3.758q-.91-.47-1.57-.345-.658.125-1.03.846-.37.717-.093 1.32.276.608 1.195 1.082.906.467 1.562.345.654-.119 1.024-.836.374-.724.097-1.336-.28-.609-1.185-1.076zm-6.642 7.846.42-1.028 5.118-.85.012-.029-.235-.075q-.673-.218-1.213-.439l-2.666-1.09.312-.761 5.128 2.097-.416 1.017-5.094.852-.009.022q.084.026.597.211.518.187.802.303l2.687 1.099-.315.768z" style="font-weight:600;font-size:7.7611px;font-family:'Open Sans';-inkscape-font-specification:'Open Sans Semi-Bold';stroke-width:.264583" transform="rotate(-143.123 105.598 124.373) scale(.96709)" aria-label="ALUMNI ASSOCIATION"/><path style="display:inline;fill:#053e1d;fill-opacity:1;stroke:none;stroke-width:.665001;stroke-dasharray:none;stroke-opacity:1" d="m86.446 136.493 6.433-19.848v19.84Zm17.397-53.773H93.229l-27.932 85.715H76.07l8.091-23.78h8.729v23.903h11.526V82.73ZM126.839 136.493l-6.433-19.848v19.84ZM109.442 82.72h10.614l27.932 85.715h-10.772l-8.091-23.78h-8.729v23.903H108.87V82.73Z"/><circle style="fill:#a85533;fill-opacity:1;stroke:none;stroke-width:.737122;stroke-dasharray:none;stroke-opacity:1" cx="74.238" cy="137.509" r="8.102"/><circle style="fill:#a85533;fill-opacity:1;stroke:none;stroke-width:.737122;stroke-dasharray:none;stroke-opacity:1" cx="140.271" cy="137.509" r="8.102"/><path style="fill:none;fill-opacity:1;stroke:#a85533;stroke-width:2.02779;stroke-dasharray:none;stroke-opacity:1" d="M79.722 136.893s8.458-17.193 18.826-.173c7.606 12.487 11.226 11.557 16.566 1.478 10.32-19.475 19.824-.531 19.824-.531"/><text xml:space="preserve" style="font-style:normal;font-variant:normal;font-weight:600;font-stretch:normal;font-size:13.4886px;font-family:'Open Sans';-inkscape-font-specification:'Open Sans Semi-Bold';display:inline;fill:#fff;fill-opacity:1;stroke:#003f09;stroke-width:.635665;stroke-dasharray:none;stroke-opacity:1" x="82.194" y="142.879"><tspan style="font-style:normal;font-variant:normal;font-weight:600;font-stretch:normal;font-size:13.4886px;font-family:'URW Bookman';-inkscape-font-specification:'URW Bookman Semi-Bold';fill:#fff;fill-opacity:1;stroke:#003f09;stroke-width:.635665;stroke-dasharray:none;stroke-opacity:1" x="82.194" y="142.879">CSEDU</tspan></text></g></svg>